<?xml version="1.0" standalone="no"?><!DOCTYPE svg PUBLIC "-//W3C//DTD SVG 1.1//EN" "http://www.w3.org/Graphics/SVG/1.1/DTD/svg11.dtd"><svg t="1765247212989" class="icon" viewBox="0 0 1024 1024" version="1.1" xmlns="http://www.w3.org/2000/svg" p-id="12168" xmlns:xlink="http://www.w3.org/1999/xlink" width="200" height="200"><path d="M572 842h-120c-16.802 0-30 13.198-30 30v122c0 16.802 13.198 30 30 30h120c16.802 0 30-13.198 30-30v-122c0-16.802-13.198-30-30-30z" fill="#994C0F" p-id="12169"></path><path d="M602 872v122c0 16.802-13.198 30-30 30h-60v-182h60c16.802 0 30 13.198 30 30z" fill="#713708" p-id="12170"></path><path d="M885.798 842L872 902H152c-12 0-22.2-6.6-27-17.398-5.398-10.8-3.6-23.4 4.2-32.402l163.202-190.2H212l-13.798-60 150-180H332c-11.4 0-21.6-6.6-27-16.802A30.71 30.71 0 0 1 308 374l96.602-129.002 49.798 3.6-9.6-57.596L487.998 134c6.002-7.2 15-11.4 24.002-11.4s18 4.2 24.002 11.4L707 362l-31.202 60 159.002 190.8c7.8 9.002 9.598 21.6 4.2 31.802C834.2 655.4 823.4 662 812 662h-80.402l154.2 180z" fill="#32D736" p-id="12171"></path><path d="M885.798 842L872 902H512V122.6c9.002 0 18 4.2 24.002 11.4L707 362l-31.202 60 159.002 190.8c7.8 9.002 9.598 21.6 4.2 31.802C834.2 655.4 823.4 662 812 662h-80.402l154.2 180z" fill="#10BB67" p-id="12172"></path><path d="M899 884.602C894.2 895.4 884 902 872 902h-60c-105.6 0-208.798-27-300-76.202-79.2-43.198-149.4-101.998-204.002-175.8-10.198-13.198-7.2-31.798 6.002-42 13.198-10.198 31.798-7.2 42 6.002 42.6 57.598 96 105.602 156 142.2 89.4 55.2 193.198 85.8 300 85.8h73.798l9.002 10.198c7.8 9.002 9.598 21.604 4.2 32.404z" fill="#10BB67" p-id="12173"></path><path d="M899 884.602C894.2 895.4 884 902 872 902h-60c-105.6 0-208.798-27-300-76.202V756.2c89.4 55.2 193.198 85.8 300 85.8h73.798l9.002 10.198c7.8 9.002 9.598 21.604 4.2 32.404z" fill="#0CA656" p-id="12174"></path><path d="M662 404.602c-4.802 100.8-64.802 187.2-150 229.2-35.998 18-76.802 28.198-120 28.198h-180c-11.4 0-22.2-6.6-27-17.398-5.398-10.202-3.6-22.8 4.2-31.802l9.002-10.8H392c45 0 85.8-13.798 120-38.4 52.2-35.398 87-94.2 90-162 0.6-16.198 15.6-29.4 31.202-28.798 16.196 1.198 29.398 14.998 28.798 31.8z" fill="#10BB67" p-id="12175"></path><path d="M719 405.198C713.6 415.4 703.4 422 692 422h-69.002c-40.198 0-78.6-11.4-110.998-31.802-32.398-19.798-58.798-48.6-76.802-83.998l-30.596-61.2L444.8 191.002l44.4 88.198c5.998 12.602 13.798 24.002 22.8 33.6 28.198 31.2 67.8 49.2 110.998 49.2H707l9.002 12a30.714 30.714 0 0 1 2.998 31.198z" fill="#10BB67" p-id="12176"></path><path d="M662 404.602c-4.802 100.8-64.802 187.2-150 229.2V563.6c52.2-35.398 87-94.2 90-162 0.6-16.198 15.6-29.4 31.202-28.798 16.196 1.198 29.398 14.998 28.798 31.8z" fill="#0CA656" p-id="12177"></path><path d="M719 405.198C713.6 415.4 703.4 422 692 422h-69.002c-40.198 0-78.6-11.4-110.998-31.802V312.8c28.198 31.2 67.8 49.2 110.998 49.2H707l9.002 12a30.714 30.714 0 0 1 2.998 31.198z" fill="#0CA656" p-id="12178"></path><path d="M572 692m-30 0a30 30 0 1 0 60 0 30 30 0 1 0-60 0Z" fill="#CCEFFF" p-id="12179"></path><path d="M452 512m-30 0a30 30 0 1 0 60 0 30 30 0 1 0-60 0Z" fill="#DCF4FF" p-id="12180"></path><path d="M512 0c-49.802 0-90 42.198-90 92s40.198 90 90 90 90-40.198 90-90-40.198-92-90-92z" fill="#FEDB41" p-id="12181"></path><path d="M602 92c0 49.802-40.198 90-90 90V0c49.802 0 90 42.198 90 92z" fill="#FFCC33" p-id="12182"></path></svg>